<svg width="1200" height="630" xmlns="http://www.w3.org/2000/svg">
  <defs>
    <linearGradient id="bg" x1="0%" y1="0%" x2="100%" y2="100%">
      <stop offset="0%" style="stop-color:#0a0a0a"/>
      <stop offset="100%" style="stop-color:#1a1a2e"/>
    </linearGradient>
    <linearGradient id="accent" x1="0%" y1="0%" x2="100%" y2="0%">
      <stop offset="0%" style="stop-color:#6366f1"/>
      <stop offset="100%" style="stop-color:#06b6d4"/>
    </linearGradient>
  </defs>

  <!-- Background -->
  <rect width="1200" height="630" fill="url(#bg)"/>

  <!-- Subtle grid pattern -->
  <g opacity="0.03" stroke="#ffffff">
    <line x1="0" y1="0" x2="1200" y2="0" stroke-width="1"/>
    <line x1="0" y1="50" x2="1200" y2="50" stroke-width="1"/>
    <line x1="0" y1="100" x2="1200" y2="100" stroke-width="1"/>
    <line x1="0" y1="150" x2="1200" y2="150" stroke-width="1"/>
    <line x1="0" y1="200" x2="1200" y2="200" stroke-width="1"/>
    <line x1="0" y1="250" x2="1200" y2="250" stroke-width="1"/>
    <line x1="0" y1="300" x2="1200" y2="300" stroke-width="1"/>
    <line x1="0" y1="350" x2="1200" y2="350" stroke-width="1"/>
    <line x1="0" y1="400" x2="1200" y2="400" stroke-width="1"/>
    <line x1="0" y1="450" x2="1200" y2="450" stroke-width="1"/>
    <line x1="0" y1="500" x2="1200" y2="500" stroke-width="1"/>
    <line x1="0" y1="550" x2="1200" y2="550" stroke-width="1"/>
    <line x1="0" y1="600" x2="1200" y2="600" stroke-width="1"/>
  </g>

  <!-- Accent line -->
  <rect x="80" y="200" width="4" height="230" rx="2" fill="url(#accent)"/>

  <!-- KAKAOPC wordmark -->
  <text x="110" y="145" font-family="'Space Grotesk', 'DM Sans', sans-serif" font-size="22" font-weight="700" fill="#6366f1" letter-spacing="6">
    KAKAOPC
  </text>

  <!-- Main title -->
  <text x="110" y="270" font-family="'Space Grotesk', 'DM Sans', sans-serif" font-size="52" font-weight="700" fill="#ffffff" letter-spacing="-0.5">
    One Validated Product
  </text>
  <text x="110" y="340" font-family="'Space Grotesk', 'DM Sans', sans-serif" font-size="52" font-weight="700" fill="#ffffff" letter-spacing="-0.5">
    Opportunity Every Morning
  </text>

  <!-- Description -->
  <text x="110" y="400" font-family="'DM Sans', sans-serif" font-size="22" fill="#a0a0b8">
    AI scans 14 sources daily — HN, GitHub, Reddit, Product Hunt &amp; more
  </text>

  <!-- URL -->
  <text x="110" y="530" font-family="'JetBrains Mono', monospace" font-size="18" fill="#6366f1">
    aimfast.dev
  </text>

  <!-- Tagline -->
  <text x="110" y="560" font-family="'DM Sans', sans-serif" font-size="16" fill="#6b7280">
    Signal Intelligence for Indie Developers
  </text>
</svg>
